<?xml version="1.0" encoding="UTF-8"?>
<svg xmlns="http://www.w3.org/2000/svg" xmlns:xlink="http://www.w3.org/1999/xlink" width="520px" height="324px" viewBox="0 0 520 324" version="1.1">
  <title>Rectangle 2</title>
  <g id="Page-1" stroke="none" stroke-width="1" fill="none" fill-rule="evenodd">
    <path d="M382.40202,10.3187591 L509.681241,137.59798 L509.853344,137.771537 C516.116688,143.938509 520,152.515757 520,162 C520,171.484243 516.116688,180.061491 509.853344,186.228463 C509.79622,186.286636 509.738855,186.344406 509.681241,186.40202 L382.40202,313.681241 C369.124194,326.959067 347.596585,326.959067 334.318759,313.681241 C321.040933,300.403415 321.040933,278.875806 334.318759,265.59798 L403.916,195.99939 L34,196 C15.2223185,196 2.29960275e-15,180.777681 0,162 C-2.29960275e-15,143.222319 15.2223185,128 34,128 L403.916,127.99939 L334.318759,58.4020203 C321.040933,45.1241943 321.040933,23.5965851 334.318759,10.3187591 C347.596585,-2.95906679 369.124194,-2.95906679 382.40202,10.3187591 Z" id="Rectangle-2" fill="#D92D20"></path>
  </g>
</svg>
