<svg xmlns="http://www.w3.org/2000/svg" height="32" width="32" viewBox="0 0 32 32"><title>binary code</title><g fill="#009F9F" class="nc-icon-wrapper"><path d="M6,30h-1.5c-1.378,0-2.5-1.121-2.5-2.5v-6.986c0-.793-.232-1.56-.672-2.219l-1.16-1.74c-.224-.336-.224-.773,0-1.109l1.16-1.74c.439-.659,.672-1.426,.672-2.219V4.5c0-1.379,1.122-2.5,2.5-2.5h1.5c.552,0,1,.447,1,1s-.448,1-1,1h-1.5c-.276,0-.5,.225-.5,.5v6.986c0,1.188-.349,2.34-1.008,3.328l-.791,1.186,.791,1.186c.659,.988,1.008,2.14,1.008,3.328v6.986c0,.275,.224,.5,.5,.5h1.5c.552,0,1,.447,1,1s-.448,1-1,1Z" fill="#009F9F"></path><path d="M27.5,30h-1.5c-.552,0-1-.447-1-1s.448-1,1-1h1.5c.276,0,.5-.225,.5-.5v-6.986c0-1.188,.349-2.34,1.008-3.328l.791-1.186-.791-1.186c-.659-.988-1.008-2.14-1.008-3.328V4.5c0-.275-.224-.5-.5-.5h-1.5c-.552,0-1-.447-1-1s.448-1,1-1h1.5c1.378,0,2.5,1.121,2.5,2.5v6.986c0,.793,.232,1.56,.672,2.219l1.16,1.74c.224,.336,.224,.773,0,1.109l-1.16,1.74c-.439,.659-.672,1.426-.672,2.219v6.986c0,1.379-1.122,2.5-2.5,2.5Z" fill="#009F9F"></path><path d="M12,15c-.552,0-1-.447-1-1v-6h-1c-.552,0-1-.447-1-1s.448-1,1-1h2c.552,0,1,.447,1,1v7c0,.553-.448,1-1,1Z" fill="#009F9F"></path><path d="M22,26c-.552,0-1-.447-1-1v-6h-1c-.552,0-1-.447-1-1s.448-1,1-1h2c.552,0,1,.447,1,1v7c0,.553-.448,1-1,1Z" fill="#009F9F"></path><path d="M12.5,17c-1.933,0-3.5,1.567-3.5,3.5v2c0,1.933,1.567,3.5,3.5,3.5s3.5-1.567,3.5-3.5v-2c0-1.933-1.567-3.5-3.5-3.5Zm1.5,5.5c0,.827-.673,1.5-1.5,1.5s-1.5-.673-1.5-1.5v-2c0-.827,.673-1.5,1.5-1.5s1.5,.673,1.5,1.5v2Z" fill="#CF3D3D" data-color="color-2"></path><path d="M19.5,6c-1.933,0-3.5,1.567-3.5,3.5v2c0,1.933,1.567,3.5,3.5,3.5s3.5-1.567,3.5-3.5v-2c0-1.933-1.567-3.5-3.5-3.5Zm1.5,5.5c0,.827-.673,1.5-1.5,1.5s-1.5-.673-1.5-1.5v-2c0-.827,.673-1.5,1.5-1.5s1.5,.673,1.5,1.5v2Z" fill="#CF3D3D" data-color="color-2"></path></g></svg>