<svg xmlns="http://www.w3.org/2000/svg" height="64" width="64" viewBox="0 0 64 64"><title>briefcase 25</title><g fill="#009F9F" class="nc-icon-wrapper"><path data-color="color-2" fill="#CF3D3D" d="M43,10h-2V5H23v5h-2V4c0-0.552,0.448-1,1-1h20c0.552,0,1,0.448,1,1V10z"></path><path fill="#009F9F" d="M13,12H5c-2.209,0-4,1.791-4,4v27c0,0.552,0.448,1,1,1h11V12z"></path><path fill="#009F9F" d="M59,12h-8v32h11c0.552,0,1-0.448,1-1V16C63,13.791,61.209,12,59,12z"></path><path fill="#009F9F" d="M49,44V12H15v32h10v-3c0-0.552,0.448-1,1-1h12c0.552,0,1,0.448,1,1v3H49z"></path><path data-color="color-2" fill="#CF3D3D" d="M13,46H5v11c0,2.209,1.791,4,4,4h4V46z"></path><path data-color="color-2" fill="#CF3D3D" d="M15,46v15h34V46H39v3c0,0.552-0.448,1-1,1H26c-0.552,0-1-0.448-1-1v-3H15z"></path><path data-color="color-2" fill="#CF3D3D" d="M51,46v15h4c2.209,0,4-1.791,4-4V46H51z"></path></g></svg>