<svg xmlns="http://www.w3.org/2000/svg" height="64" width="64" viewBox="0 0 64 64"><title>clock anim</title><g fill="#009F9F" class="nc-icon-wrapper"><g class="nc-loop-clock-anim-icon-f"><path d="M32,62A30,30,0,1,1,62,32,30.034,30.034,0,0,1,32,62ZM32,4A28,28,0,1,0,60,32,28.032,28.032,0,0,0,32,4Z" fill="#009F9F"></path><path d="M32,16a1,1,0,0,1-1-1V10a1,1,0,0,1,2,0v5A1,1,0,0,1,32,16Z" fill="#009F9F"></path><path d="M44.021,20.979a1,1,0,0,1-.708-1.707l3.537-3.536a1,1,0,1,1,1.414,1.414l-3.536,3.537A1,1,0,0,1,44.021,20.979Z" fill="#009F9F"></path><path d="M54,33H49a1,1,0,0,1,0-2h5a1,1,0,0,1,0,2Z" fill="#009F9F"></path><path d="M47.557,48.557a1,1,0,0,1-.707-.293l-3.537-3.536a1,1,0,1,1,1.415-1.415l3.536,3.537a1,1,0,0,1-.707,1.707Z" fill="#009F9F"></path><path d="M32,55a1,1,0,0,1-1-1V49a1,1,0,0,1,2,0v5A1,1,0,0,1,32,55Z" fill="#009F9F"></path><path d="M16.443,48.557a1,1,0,0,1-.707-1.707l3.536-3.537a1,1,0,1,1,1.415,1.415L17.15,48.264A1,1,0,0,1,16.443,48.557Z" fill="#009F9F"></path><path d="M15,33H10a1,1,0,0,1,0-2h5a1,1,0,0,1,0,2Z" fill="#009F9F"></path><path d="M19.979,20.979a1,1,0,0,1-.707-.292L15.736,17.15a1,1,0,1,1,1.414-1.414l3.537,3.536a1,1,0,0,1-.708,1.707Z" fill="#009F9F"></path><circle cx="32" cy="32" data-color="color-2" fill="#CF3D3D" r="4"></circle><path d="M32,34a2,2,0,0,1-2-2V10a2,2,0,0,1,4,0V32A2,2,0,0,1,32,34Z" fill="#CF3D3D" data-color="color-2"></path><path d="M34,15V32a2,2,0,0,1-4,0V15a2,2,0,0,1,4,0Z" fill="#CF3D3D" data-color="color-2"></path></g><style>.nc-loop-clock-anim-icon-f&gt;*{--animation-duration:1s;transform-origin:50% 50%}.nc-loop-clock-anim-icon-f&gt;:nth-last-child(2){animation:nc-loop-clock-anim-m calc(var(--animation-duration)/2) infinite linear}.nc-loop-clock-anim-icon-f&gt;:nth-last-child(1){animation:nc-loop-clock-anim-h var(--animation-duration) infinite linear}@keyframes nc-loop-clock-anim-h{0%{transform:rotate(90deg)}100%{transform:rotate(450deg)}}@keyframes nc-loop-clock-anim-m{0%{transform:rotate(0)}100%{transform:rotate(360deg)}}</style></g></svg>