<svg xmlns="http://www.w3.org/2000/svg" height="32" width="32" viewBox="0 0 32 32"><title>compass</title><g fill="#009F9F" class="nc-icon-wrapper"><path data-color="color-2" fill="#CF3D3D" d="M17,3.101V0h-2v3.101C12.721,3.566,11,5.586,11,8c0,2.757,2.243,5,5,5s5-2.243,5-5 C21,5.586,19.279,3.566,17,3.101z"></path><path fill="#009F9F" d="M26.571,22H29v-2h-3.431l-3.936-7.862c-0.817,1.108-1.949,1.966-3.266,2.441L21.077,20H17v-2h-2v2h-4.077 l2.71-5.421c-1.317-0.475-2.45-1.333-3.266-2.441L6.431,20H3v2h2.429L1,30.846c2.337,0.584,4.767-0.533,5.844-2.688L9.923,22H15v2h2 v-2h5.077l3.079,6.158c1.077,2.155,3.507,3.272,5.844,2.688L26.571,22z"></path></g></svg>