<svg xmlns="http://www.w3.org/2000/svg" height="32" width="32" viewBox="0 0 32 32"><title>cut</title><g fill="#009F9F" class="nc-icon-wrapper"><rect data-color="color-2" x="19" y="10" fill="#CF3D3D" width="5" height="2"></rect><rect data-color="color-2" x="19" y="29" fill="#CF3D3D" width="5" height="2"></rect><rect data-color="color-2" x="11" y="29" fill="#CF3D3D" width="5" height="2"></rect><rect data-color="color-2" x="30" y="18" fill="#CF3D3D" width="2" height="5"></rect><path data-color="color-2" fill="#CF3D3D" d="M32,15h-2v-3h-3v-2h4c0.553,0,1,0.447,1,1V15z"></path><path data-color="color-2" fill="#CF3D3D" d="M31,31h-4v-2h3v-3h2v4C32,30.553,31.553,31,31,31z"></path><path data-color="color-2" fill="#CF3D3D" d="M8,31H4c-0.553,0-1-0.447-1-1v-4h2v3h3V31z"></path><path fill="#009F9F" d="M9,17.5c0-0.728-0.19-1.406-0.499-2.016l2.575-2.208l5.625,5.625C18.64,20.84,21.649,21.211,24,19.8 L13.733,11L24,2.2c-2.351-1.411-5.36-1.04-7.298,0.899l-5.625,5.625L8.502,6.516C8.81,5.906,9,5.228,9,4.5C9,2.019,6.981,0,4.5,0 S0,2.019,0,4.5C0,6.981,2.019,9,4.5,9c0.672,0,1.304-0.158,1.877-0.423L8.8,11l-2.423,2.423C5.804,13.158,5.172,13,4.5,13 C2.019,13,0,15.019,0,17.5C0,19.981,2.019,22,4.5,22S9,19.981,9,17.5z M2,4.5C2,3.122,3.121,2,4.5,2S7,3.122,7,4.5S5.879,7,4.5,7 S2,5.878,2,4.5z M4.5,15C5.879,15,7,16.122,7,17.5S5.879,20,4.5,20S2,18.878,2,17.5S3.121,15,4.5,15z"></path></g></svg>