<svg xmlns="http://www.w3.org/2000/svg" height="32" width="32" viewBox="0 0 32 32"><title>grid obj snap to bottom right</title><g stroke-linecap="square" stroke-miterlimit="10" fill="#009F9F" stroke-linejoin="miter" class="nc-icon-wrapper"><path d="M27.5 19H20.5C19.6716 19 19 19.6716 19 20.5V27.5C19 28.3284 19.6716 29 20.5 29H27.5C28.3284 29 29 28.3284 29 27.5V20.5C29 19.6716 28.3284 19 27.5 19Z" stroke="#CF3D3D" stroke-width="2" data-color="color-2" fill="none"></path><path d="M26.5 13H27.5C28.3284 13 29 12.3284 29 11.5V10.5" stroke="#009F9F" stroke-width="2" fill="none"></path><path d="M10.5 13H11.5C12.3284 13 13 12.3284 13 11.5V10.5" stroke="#009F9F" stroke-width="2" fill="none"></path><path d="M10.5 29H11.5C12.3284 29 13 28.3284 13 27.5V26.5" stroke="#009F9F" stroke-width="2" fill="none"></path><path d="M21.5 13H20.5C19.6716 13 19 12.3284 19 11.5V10.5" stroke="#009F9F" stroke-width="2" fill="none"></path><path d="M5.5 13H4.5C3.67157 13 3 12.3284 3 11.5V10.5" stroke="#009F9F" stroke-width="2" fill="none"></path><path d="M5.5 29H4.5C3.67157 29 3 28.3284 3 27.5V26.5" stroke="#009F9F" stroke-width="2" fill="none"></path><path d="M21.5 3H20.5C19.6716 3 19 3.67157 19 4.5L19 5.5" stroke="#009F9F" stroke-width="2" fill="none"></path><path d="M5.5 3H4.5C3.67157 3 3 3.67157 3 4.5L3 5.5" stroke="#009F9F" stroke-width="2" fill="none"></path><path d="M5.5 19H4.5C3.67157 19 3 19.6716 3 20.5L3 21.5" stroke="#009F9F" stroke-width="2" fill="none"></path><path d="M26.5 3H27.5C28.3284 3 29 3.67157 29 4.5V5.5" stroke="#009F9F" stroke-width="2" fill="none"></path><path d="M10.5 3H11.5C12.3284 3 13 3.67157 13 4.5V5.5" stroke="#009F9F" stroke-width="2" fill="none"></path><path d="M10.5 19H11.5C12.3284 19 13 19.6716 13 20.5V21.5" stroke="#009F9F" stroke-width="2" fill="none"></path></g></svg>