<svg xmlns="http://www.w3.org/2000/svg" height="64" width="64" viewBox="0 0 64 64"><title>interview</title><g fill="#009F9F" class="nc-icon-wrapper"><path d="M32,2A22.939,22.939,0,0,0,14.771,9.771l2.842,2.842a18.956,18.956,0,0,1,28.774,0l2.842-2.842A22.939,22.939,0,0,0,32,2Z" fill="#CF3D3D" data-color="color-2"></path><path d="M32,12a12.968,12.968,0,0,0-10.133,4.867l2.854,2.854a8.98,8.98,0,0,1,14.558,0l2.854-2.854A12.968,12.968,0,0,0,32,12Z" fill="#CF3D3D" data-color="color-2"></path><path d="M5,15A17.019,17.019,0,0,1,22,32v1.788l3.914,8.806a1,1,0,0,1-.467,1.3L22,45.618V50a5,5,0,0,1-5,5H10v7H1V15.482A16.913,16.913,0,0,1,5,15Z" fill="#009F9F"></path><circle cx="32" cy="25" r="3" fill="#CF3D3D" data-color="color-2"></circle><path d="M59,15A17.019,17.019,0,0,0,42,32v1.788l-3.914,8.806a1,1,0,0,0,.467,1.3L42,45.618V50a5,5,0,0,0,5,5h7v7h9V15.482A16.913,16.913,0,0,0,59,15Z" fill="#009F9F"></path></g></svg>