<svg xmlns="http://www.w3.org/2000/svg" height="64" width="64" viewBox="0 0 64 64"><title>mobile chat</title><g fill="#009F9F" class="nc-icon-wrapper"><path d="M58,1H32a5.006,5.006,0,0,0-5,5V33a1,1,0,0,0,.561.9,1,1,0,0,0,1.053-.109L37.343,27H58a5.006,5.006,0,0,0,5-5V6A5.006,5.006,0,0,0,58,1ZM45,19H36a1,1,0,0,1-1-1h0a1,1,0,0,1,1-1h9a1,1,0,0,1,1,1h0A1,1,0,0,1,45,19Zm9-8H36a1,1,0,0,1-1-1h0a1,1,0,0,1,1-1H54a1,1,0,0,1,1,1h0A1,1,0,0,1,54,11Z" fill="#CF3D3D" data-color="color-2"></path><path d="M44,29V54a1,1,0,0,1-1,1H9a1,1,0,0,1-1-1V12a1,1,0,0,1,1-1H25V5H11a5,5,0,0,0-5,5V58a5,5,0,0,0,5,5H41a5,5,0,0,0,5-5V29Z" fill="#009F9F"></path></g></svg>