<svg xmlns="http://www.w3.org/2000/svg" height="64" width="64" viewBox="0 0 64 64"><title>newsletter</title><g fill="#009F9F" class="nc-icon-wrapper"><path data-color="color-2" fill="#CF3D3D" d="M42,15H22c-0.553,0-1-0.447-1-1s0.447-1,1-1h20c0.553,0,1,0.447,1,1S42.553,15,42,15z"></path><path data-color="color-2" fill="#CF3D3D" d="M42,25H22c-0.553,0-1-0.447-1-1s0.447-1,1-1h20c0.553,0,1,0.447,1,1S42.553,25,42,25z"></path><path fill="#009F9F" d="M13,32.3V22V3h38v19v10.3l10.5-5.9l-8.5-5V2c0-0.6-0.4-1-1-1H12c-0.6,0-1,0.4-1,1v19.4l-8.6,5L13,32.3z"></path><path fill="#009F9F" d="M32.5,44.9C32.3,45,32.2,45,32,45s-0.3,0-0.5-0.1L1,27.9V61c0,1.105,0.895,2,2,2h58c1.105,0,2-0.895,2-2 V27.9L32.5,44.9z"></path></g></svg>