<svg xmlns="http://www.w3.org/2000/svg" height="32" width="32" viewBox="0 0 32 32"><title>sign open</title><g stroke-linecap="square" stroke-miterlimit="10" fill="#009F9F" stroke-linejoin="miter" class="nc-icon-wrapper"><line data-cap="butt" fill="none" stroke="#009F9F" stroke-width="2" x1="7" y1="9" x2="14.32" y2="4.086" stroke-linecap="butt"></line><line data-cap="butt" fill="none" stroke="#009F9F" stroke-width="2" x1="25" y1="9" x2="17.68" y2="4.086" stroke-linecap="butt"></line><rect x="1" y="9" fill="none" stroke="#009F9F" stroke-width="2" width="30" height="22"></rect><circle fill="none" stroke="#009F9F" stroke-width="2" cx="16" cy="3" r="2"></circle><path data-color="color-2" data-stroke="none" fill="#CF3D3D" d="M10.51,20.036c0,1.018-0.248,1.792-0.748,2.322s-1.23,0.795-2.193,0.795 c-0.951,0-1.678-0.267-2.184-0.799c-0.508-0.532-0.76-1.308-0.76-2.326c0-1.007,0.252-1.776,0.754-2.308 c0.504-0.531,1.236-0.797,2.197-0.797c0.963,0,1.693,0.264,2.189,0.791C10.262,18.241,10.51,19.015,10.51,20.036z M6.346,20.036 c0,1.17,0.408,1.755,1.223,1.755c0.976,0,1.221-0.787,1.221-1.755c0-0.958-0.251-1.771-1.213-1.771 C6.756,18.264,6.346,18.854,6.346,20.036z" stroke-linejoin="miter" stroke="none"></path><path data-color="color-2" data-stroke="none" fill="#CF3D3D" d="M15.996,18.943c0,0.676-0.199,1.198-0.598,1.567 c-0.4,0.368-0.967,0.552-1.699,0.552h-0.461v2.008h-1.635v-6.052h2.096c0.764,0,1.338,0.167,1.721,0.501 C15.805,17.853,15.996,18.328,15.996,18.943z M13.238,19.729h0.299c0.485,0,0.803-0.283,0.803-0.778c0-0.408-0.227-0.613-0.68-0.613 h-0.422V19.729z" stroke-linejoin="miter" stroke="none"></path><path data-color="color-2" data-stroke="none" fill="#CF3D3D" d="M20.553,23.07h-3.592v-6.052h3.592v1.312h-1.957v0.952h1.812v1.312h-1.812v1.143 h1.957V23.07z" stroke-linejoin="miter" stroke="none"></path><path data-color="color-2" data-stroke="none" fill="#CF3D3D" d="M27.375,23.07H25.23l-2.211-4.264c0,0,0.041,1.183,0.041,1.536v2.728h-1.447v-6.052 h2.135l2.227,4.206c-0.037-0.61-0.057-1.1-0.057-1.469v-2.736h1.457V23.07z" stroke-linejoin="miter" stroke="none"></path></g></svg>