<svg xmlns="http://www.w3.org/2000/svg" height="32" width="32" viewBox="0 0 32 32"><title>virtual assistant</title><g fill="#009F9F" class="nc-icon-wrapper"><path d="M16,23a3,3,0,0,1-3-3V12a1,1,0,0,0-2,0v4a3,3,0,0,1-3,3H0V17H8a1,1,0,0,0,1-1V12a3,3,0,0,1,6,0v8a1,1,0,0,0,2,0V14a3,3,0,0,1,6,0v2a1,1,0,0,0,1,1h8v2H24a3,3,0,0,1-3-3V14a1,1,0,0,0-2,0v6A3,3,0,0,1,16,23Z" fill="#CF3D3D" data-color="color-2"></path><path d="M25,27a1,1,0,0,1-1,1H8a1,1,0,0,1-1-1V21H5v8a3,3,0,0,0,3,3H24a3,3,0,0,0,3-3V21H25Z" fill="#009F9F"></path><path d="M24,0H8A3,3,0,0,0,5,3V15H7V5A1,1,0,0,1,8,4H24a1,1,0,0,1,1,1V15h2V3A3,3,0,0,0,24,0Z" fill="#009F9F"></path></g></svg>